<svg width="100" height="43" viewBox="0 0 100 43" fill="none" xmlns="http://www.w3.org/2000/svg">
<path d="M12.6 29.45C12.6 32.1167 12.1333 34.3167 11.2 36.05C10.3 37.7833 9.08333 39.1333 7.55 40.1C6.01667 41.1 4.15 41.9667 1.95 42.7L0 37.45C1.46667 36.8833 2.56667 36.2333 3.3 35.5C4.06667 34.7667 4.58333 33.9167 4.85 32.95C5.11667 31.9833 5.25 30.7333 5.25 29.2V0H12.6V29.45Z" fill="#131313"/>
<path d="M41.2727 34.6H35.1227L34.7727 31.05C33.8393 32.5167 32.706 33.6167 31.3727 34.35C30.0393 35.05 28.4893 35.4 26.7227 35.4C24.3227 35.4 22.4893 34.6833 21.2227 33.25C19.956 31.7833 19.3227 29.75 19.3227 27.15V8.1H26.4227V26.25C26.4227 27.65 26.656 28.65 27.1227 29.25C27.5893 29.8167 28.3227 30.1 29.3227 30.1C31.2227 30.1 32.8393 28.95 34.1727 26.65V8.1H41.2727V34.6Z" fill="#131313"/>
<path d="M63.0836 7.3C65.4169 7.3 67.2336 8.01667 68.5336 9.45C69.8336 10.85 70.4836 12.8 70.4836 15.3V34.6H63.3836V16.5C63.3836 15.0667 63.1336 14.0667 62.6336 13.5C62.1669 12.9 61.4503 12.6 60.4836 12.6C59.4836 12.6 58.5669 12.9167 57.7336 13.55C56.9336 14.15 56.1503 15.0667 55.3836 16.3V34.6H48.2836V8.1H54.4336L54.9836 11.45C56.0836 10.0833 57.2836 9.05 58.5836 8.35C59.9169 7.65 61.4169 7.3 63.0836 7.3Z" fill="#131313"/>
<path d="M97.4887 27.25C97.4887 28.2833 97.6387 29.05 97.9387 29.55C98.2387 30.0167 98.7387 30.3667 99.4387 30.6L97.9387 35.3C96.372 35.1667 95.0887 34.8 94.0887 34.2C93.122 33.6 92.372 32.6667 91.8387 31.4C90.1053 34.0667 87.4553 35.4 83.8887 35.4C81.2553 35.4 79.1553 34.65 77.5887 33.15C76.0553 31.6167 75.2887 29.6333 75.2887 27.2C75.2887 24.3 76.3387 22.0833 78.4387 20.55C80.5387 19.0167 83.5553 18.25 87.4887 18.25H90.5387V16.95C90.5387 15.3167 90.172 14.1833 89.4387 13.55C88.7053 12.9167 87.4887 12.6 85.7887 12.6C83.922 12.6 81.5887 13.0667 78.7887 14L77.1887 9.25C80.4887 7.95 83.7553 7.3 86.9887 7.3C90.5887 7.3 93.2387 8.08333 94.9387 9.65C96.6387 11.1833 97.4887 13.4833 97.4887 16.55V27.25ZM85.8387 30.3C87.8387 30.3 89.4053 29.3167 90.5387 27.35V22.3H88.1887C84.3553 22.3 82.4387 23.7333 82.4387 26.6C82.4387 27.7667 82.722 28.6833 83.2887 29.35C83.8887 29.9833 84.7387 30.3 85.8387 30.3Z" fill="#131313"/>
</svg>
